<!-- Generated by IcoMoon.io -->
<svg version="1.1" xmlns="http://www.w3.org/2000/svg" width="1536" height="1536" viewBox="0 0 1536 1536">
<title></title>
<g id="icomoon-ignore">
    <line stroke-width="1" x1="16" y1="0" x2="16" y2="1536" stroke="#449FDB" opacity="0.3"></line>
    <line stroke-width="1" x1="32" y1="0" x2="32" y2="1536" stroke="#449FDB" opacity="1"></line>
    <line stroke-width="1" x1="48" y1="0" x2="48" y2="1536" stroke="#449FDB" opacity="0.3"></line>
    <line stroke-width="1" x1="64" y1="0" x2="64" y2="1536" stroke="#449FDB" opacity="1"></line>
    <line stroke-width="1" x1="80" y1="0" x2="80" y2="1536" stroke="#449FDB" opacity="0.3"></line>
    <line stroke-width="1" x1="96" y1="0" x2="96" y2="1536" stroke="#449FDB" opacity="1"></line>
    <line stroke-width="1" x1="112" y1="0" x2="112" y2="1536" stroke="#449FDB" opacity="0.3"></line>
    <line stroke-width="1" x1="128" y1="0" x2="128" y2="1536" stroke="#449FDB" opacity="1"></line>
    <line stroke-width="1" x1="144" y1="0" x2="144" y2="1536" stroke="#449FDB" opacity="0.3"></line>
    <line stroke-width="1" x1="160" y1="0" x2="160" y2="1536" stroke="#449FDB" opacity="1"></line>
    <line stroke-width="1" x1="176" y1="0" x2="176" y2="1536" stroke="#449FDB" opacity="0.3"></line>
    <line stroke-width="1" x1="192" y1="0" x2="192" y2="1536" stroke="#449FDB" opacity="1"></line>
    <line stroke-width="1" x1="208" y1="0" x2="208" y2="1536" stroke="#449FDB" opacity="0.3"></line>
    <line stroke-width="1" x1="224" y1="0" x2="224" y2="1536" stroke="#449FDB" opacity="1"></line>
    <line stroke-width="1" x1="240" y1="0" x2="240" y2="1536" stroke="#449FDB" opacity="0.3"></line>
    <line stroke-width="1" x1="256" y1="0" x2="256" y2="1536" stroke="#449FDB" opacity="1"></line>
    <line stroke-width="1" x1="272" y1="0" x2="272" y2="1536" stroke="#449FDB" opacity="0.3"></line>
    <line stroke-width="1" x1="288" y1="0" x2="288" y2="1536" stroke="#449FDB" opacity="1"></line>
    <line stroke-width="1" x1="304" y1="0" x2="304" y2="1536" stroke="#449FDB" opacity="0.3"></line>
    <line stroke-width="1" x1="320" y1="0" x2="320" y2="1536" stroke="#449FDB" opacity="1"></line>
    <line stroke-width="1" x1="336" y1="0" x2="336" y2="1536" stroke="#449FDB" opacity="0.3"></line>
    <line stroke-width="1" x1="352" y1="0" x2="352" y2="1536" stroke="#449FDB" opacity="1"></line>
    <line stroke-width="1" x1="368" y1="0" x2="368" y2="1536" stroke="#449FDB" opacity="0.3"></line>
    <line stroke-width="1" x1="384" y1="0" x2="384" y2="1536" stroke="#449FDB" opacity="1"></line>
    <line stroke-width="1" x1="400" y1="0" x2="400" y2="1536" stroke="#449FDB" opacity="0.3"></line>
    <line stroke-width="1" x1="416" y1="0" x2="416" y2="1536" stroke="#449FDB" opacity="1"></line>
    <line stroke-width="1" x1="432" y1="0" x2="432" y2="1536" stroke="#449FDB" opacity="0.3"></line>
    <line stroke-width="1" x1="448" y1="0" x2="448" y2="1536" stroke="#449FDB" opacity="1"></line>
    <line stroke-width="1" x1="464" y1="0" x2="464" y2="1536" stroke="#449FDB" opacity="0.3"></line>
    <line stroke-width="1" x1="480" y1="0" x2="480" y2="1536" stroke="#449FDB" opacity="1"></line>
    <line stroke-width="1" x1="496" y1="0" x2="496" y2="1536" stroke="#449FDB" opacity="0.3"></line>
    <line stroke-width="1" x1="512" y1="0" x2="512" y2="1536" stroke="#449FDB" opacity="1"></line>
    <line stroke-width="1" x1="528" y1="0" x2="528" y2="1536" stroke="#449FDB" opacity="0.3"></line>
    <line stroke-width="1" x1="544" y1="0" x2="544" y2="1536" stroke="#449FDB" opacity="1"></line>
    <line stroke-width="1" x1="560" y1="0" x2="560" y2="1536" stroke="#449FDB" opacity="0.3"></line>
    <line stroke-width="1" x1="576" y1="0" x2="576" y2="1536" stroke="#449FDB" opacity="1"></line>
    <line stroke-width="1" x1="592" y1="0" x2="592" y2="1536" stroke="#449FDB" opacity="0.3"></line>
    <line stroke-width="1" x1="608" y1="0" x2="608" y2="1536" stroke="#449FDB" opacity="1"></line>
    <line stroke-width="1" x1="624" y1="0" x2="624" y2="1536" stroke="#449FDB" opacity="0.3"></line>
    <line stroke-width="1" x1="640" y1="0" x2="640" y2="1536" stroke="#449FDB" opacity="1"></line>
    <line stroke-width="1" x1="656" y1="0" x2="656" y2="1536" stroke="#449FDB" opacity="0.3"></line>
    <line stroke-width="1" x1="672" y1="0" x2="672" y2="1536" stroke="#449FDB" opacity="1"></line>
    <line stroke-width="1" x1="688" y1="0" x2="688" y2="1536" stroke="#449FDB" opacity="0.3"></line>
    <line stroke-width="1" x1="704" y1="0" x2="704" y2="1536" stroke="#449FDB" opacity="1"></line>
    <line stroke-width="1" x1="720" y1="0" x2="720" y2="1536" stroke="#449FDB" opacity="0.3"></line>
    <line stroke-width="1" x1="736" y1="0" x2="736" y2="1536" stroke="#449FDB" opacity="1"></line>
    <line stroke-width="1" x1="752" y1="0" x2="752" y2="1536" stroke="#449FDB" opacity="0.3"></line>
    <line stroke-width="1" x1="768" y1="0" x2="768" y2="1536" stroke="#449FDB" opacity="1"></line>
    <line stroke-width="1" x1="784" y1="0" x2="784" y2="1536" stroke="#449FDB" opacity="0.3"></line>
    <line stroke-width="1" x1="800" y1="0" x2="800" y2="1536" stroke="#449FDB" opacity="1"></line>
    <line stroke-width="1" x1="816" y1="0" x2="816" y2="1536" stroke="#449FDB" opacity="0.3"></line>
    <line stroke-width="1" x1="832" y1="0" x2="832" y2="1536" stroke="#449FDB" opacity="1"></line>
    <line stroke-width="1" x1="848" y1="0" x2="848" y2="1536" stroke="#449FDB" opacity="0.3"></line>
    <line stroke-width="1" x1="864" y1="0" x2="864" y2="1536" stroke="#449FDB" opacity="1"></line>
    <line stroke-width="1" x1="880" y1="0" x2="880" y2="1536" stroke="#449FDB" opacity="0.3"></line>
    <line stroke-width="1" x1="896" y1="0" x2="896" y2="1536" stroke="#449FDB" opacity="1"></line>
    <line stroke-width="1" x1="912" y1="0" x2="912" y2="1536" stroke="#449FDB" opacity="0.3"></line>
    <line stroke-width="1" x1="928" y1="0" x2="928" y2="1536" stroke="#449FDB" opacity="1"></line>
    <line stroke-width="1" x1="944" y1="0" x2="944" y2="1536" stroke="#449FDB" opacity="0.3"></line>
    <line stroke-width="1" x1="960" y1="0" x2="960" y2="1536" stroke="#449FDB" opacity="1"></line>
    <line stroke-width="1" x1="976" y1="0" x2="976" y2="1536" stroke="#449FDB" opacity="0.3"></line>
    <line stroke-width="1" x1="992" y1="0" x2="992" y2="1536" stroke="#449FDB" opacity="1"></line>
    <line stroke-width="1" x1="1008" y1="0" x2="1008" y2="1536" stroke="#449FDB" opacity="0.3"></line>
    <line stroke-width="1" x1="1024" y1="0" x2="1024" y2="1536" stroke="#449FDB" opacity="1"></line>
    <line stroke-width="1" x1="1040" y1="0" x2="1040" y2="1536" stroke="#449FDB" opacity="0.3"></line>
    <line stroke-width="1" x1="1056" y1="0" x2="1056" y2="1536" stroke="#449FDB" opacity="1"></line>
    <line stroke-width="1" x1="1072" y1="0" x2="1072" y2="1536" stroke="#449FDB" opacity="0.3"></line>
    <line stroke-width="1" x1="1088" y1="0" x2="1088" y2="1536" stroke="#449FDB" opacity="1"></line>
    <line stroke-width="1" x1="1104" y1="0" x2="1104" y2="1536" stroke="#449FDB" opacity="0.3"></line>
    <line stroke-width="1" x1="1120" y1="0" x2="1120" y2="1536" stroke="#449FDB" opacity="1"></line>
    <line stroke-width="1" x1="1136" y1="0" x2="1136" y2="1536" stroke="#449FDB" opacity="0.3"></line>
    <line stroke-width="1" x1="1152" y1="0" x2="1152" y2="1536" stroke="#449FDB" opacity="1"></line>
    <line stroke-width="1" x1="1168" y1="0" x2="1168" y2="1536" stroke="#449FDB" opacity="0.3"></line>
    <line stroke-width="1" x1="1184" y1="0" x2="1184" y2="1536" stroke="#449FDB" opacity="1"></line>
    <line stroke-width="1" x1="1200" y1="0" x2="1200" y2="1536" stroke="#449FDB" opacity="0.3"></line>
    <line stroke-width="1" x1="1216" y1="0" x2="1216" y2="1536" stroke="#449FDB" opacity="1"></line>
    <line stroke-width="1" x1="1232" y1="0" x2="1232" y2="1536" stroke="#449FDB" opacity="0.3"></line>
    <line stroke-width="1" x1="1248" y1="0" x2="1248" y2="1536" stroke="#449FDB" opacity="1"></line>
    <line stroke-width="1" x1="1264" y1="0" x2="1264" y2="1536" stroke="#449FDB" opacity="0.3"></line>
    <line stroke-width="1" x1="1280" y1="0" x2="1280" y2="1536" stroke="#449FDB" opacity="1"></line>
    <line stroke-width="1" x1="1296" y1="0" x2="1296" y2="1536" stroke="#449FDB" opacity="0.3"></line>
    <line stroke-width="1" x1="1312" y1="0" x2="1312" y2="1536" stroke="#449FDB" opacity="1"></line>
    <line stroke-width="1" x1="1328" y1="0" x2="1328" y2="1536" stroke="#449FDB" opacity="0.3"></line>
    <line stroke-width="1" x1="1344" y1="0" x2="1344" y2="1536" stroke="#449FDB" opacity="1"></line>
    <line stroke-width="1" x1="1360" y1="0" x2="1360" y2="1536" stroke="#449FDB" opacity="0.3"></line>
    <line stroke-width="1" x1="1376" y1="0" x2="1376" y2="1536" stroke="#449FDB" opacity="1"></line>
    <line stroke-width="1" x1="1392" y1="0" x2="1392" y2="1536" stroke="#449FDB" opacity="0.3"></line>
    <line stroke-width="1" x1="1408" y1="0" x2="1408" y2="1536" stroke="#449FDB" opacity="1"></line>
    <line stroke-width="1" x1="1424" y1="0" x2="1424" y2="1536" stroke="#449FDB" opacity="0.3"></line>
    <line stroke-width="1" x1="1440" y1="0" x2="1440" y2="1536" stroke="#449FDB" opacity="1"></line>
    <line stroke-width="1" x1="1456" y1="0" x2="1456" y2="1536" stroke="#449FDB" opacity="0.3"></line>
    <line stroke-width="1" x1="1472" y1="0" x2="1472" y2="1536" stroke="#449FDB" opacity="1"></line>
    <line stroke-width="1" x1="1488" y1="0" x2="1488" y2="1536" stroke="#449FDB" opacity="0.3"></line>
    <line stroke-width="1" x1="1504" y1="0" x2="1504" y2="1536" stroke="#449FDB" opacity="1"></line>
    <line stroke-width="1" x1="1520" y1="0" x2="1520" y2="1536" stroke="#449FDB" opacity="0.3"></line>
    <line stroke-width="1" x1="0" y1="16" x2="1536" y2="16" stroke="#449FDB" opacity="0.3"></line>
    <line stroke-width="1" x1="0" y1="32" x2="1536" y2="32" stroke="#449FDB" opacity="1"></line>
    <line stroke-width="1" x1="0" y1="48" x2="1536" y2="48" stroke="#449FDB" opacity="0.3"></line>
    <line stroke-width="1" x1="0" y1="64" x2="1536" y2="64" stroke="#449FDB" opacity="1"></line>
    <line stroke-width="1" x1="0" y1="80" x2="1536" y2="80" stroke="#449FDB" opacity="0.3"></line>
    <line stroke-width="1" x1="0" y1="96" x2="1536" y2="96" stroke="#449FDB" opacity="1"></line>
    <line stroke-width="1" x1="0" y1="112" x2="1536" y2="112" stroke="#449FDB" opacity="0.3"></line>
    <line stroke-width="1" x1="0" y1="128" x2="1536" y2="128" stroke="#449FDB" opacity="1"></line>
    <line stroke-width="1" x1="0" y1="144" x2="1536" y2="144" stroke="#449FDB" opacity="0.3"></line>
    <line stroke-width="1" x1="0" y1="160" x2="1536" y2="160" stroke="#449FDB" opacity="1"></line>
    <line stroke-width="1" x1="0" y1="176" x2="1536" y2="176" stroke="#449FDB" opacity="0.3"></line>
    <line stroke-width="1" x1="0" y1="192" x2="1536" y2="192" stroke="#449FDB" opacity="1"></line>
    <line stroke-width="1" x1="0" y1="208" x2="1536" y2="208" stroke="#449FDB" opacity="0.3"></line>
    <line stroke-width="1" x1="0" y1="224" x2="1536" y2="224" stroke="#449FDB" opacity="1"></line>
    <line stroke-width="1" x1="0" y1="240" x2="1536" y2="240" stroke="#449FDB" opacity="0.3"></line>
    <line stroke-width="1" x1="0" y1="256" x2="1536" y2="256" stroke="#449FDB" opacity="1"></line>
    <line stroke-width="1" x1="0" y1="272" x2="1536" y2="272" stroke="#449FDB" opacity="0.3"></line>
    <line stroke-width="1" x1="0" y1="288" x2="1536" y2="288" stroke="#449FDB" opacity="1"></line>
    <line stroke-width="1" x1="0" y1="304" x2="1536" y2="304" stroke="#449FDB" opacity="0.3"></line>
    <line stroke-width="1" x1="0" y1="320" x2="1536" y2="320" stroke="#449FDB" opacity="1"></line>
    <line stroke-width="1" x1="0" y1="336" x2="1536" y2="336" stroke="#449FDB" opacity="0.3"></line>
    <line stroke-width="1" x1="0" y1="352" x2="1536" y2="352" stroke="#449FDB" opacity="1"></line>
    <line stroke-width="1" x1="0" y1="368" x2="1536" y2="368" stroke="#449FDB" opacity="0.3"></line>
    <line stroke-width="1" x1="0" y1="384" x2="1536" y2="384" stroke="#449FDB" opacity="1"></line>
    <line stroke-width="1" x1="0" y1="400" x2="1536" y2="400" stroke="#449FDB" opacity="0.3"></line>
    <line stroke-width="1" x1="0" y1="416" x2="1536" y2="416" stroke="#449FDB" opacity="1"></line>
    <line stroke-width="1" x1="0" y1="432" x2="1536" y2="432" stroke="#449FDB" opacity="0.3"></line>
    <line stroke-width="1" x1="0" y1="448" x2="1536" y2="448" stroke="#449FDB" opacity="1"></line>
    <line stroke-width="1" x1="0" y1="464" x2="1536" y2="464" stroke="#449FDB" opacity="0.3"></line>
    <line stroke-width="1" x1="0" y1="480" x2="1536" y2="480" stroke="#449FDB" opacity="1"></line>
    <line stroke-width="1" x1="0" y1="496" x2="1536" y2="496" stroke="#449FDB" opacity="0.3"></line>
    <line stroke-width="1" x1="0" y1="512" x2="1536" y2="512" stroke="#449FDB" opacity="1"></line>
    <line stroke-width="1" x1="0" y1="528" x2="1536" y2="528" stroke="#449FDB" opacity="0.3"></line>
    <line stroke-width="1" x1="0" y1="544" x2="1536" y2="544" stroke="#449FDB" opacity="1"></line>
    <line stroke-width="1" x1="0" y1="560" x2="1536" y2="560" stroke="#449FDB" opacity="0.3"></line>
    <line stroke-width="1" x1="0" y1="576" x2="1536" y2="576" stroke="#449FDB" opacity="1"></line>
    <line stroke-width="1" x1="0" y1="592" x2="1536" y2="592" stroke="#449FDB" opacity="0.3"></line>
    <line stroke-width="1" x1="0" y1="608" x2="1536" y2="608" stroke="#449FDB" opacity="1"></line>
    <line stroke-width="1" x1="0" y1="624" x2="1536" y2="624" stroke="#449FDB" opacity="0.3"></line>
    <line stroke-width="1" x1="0" y1="640" x2="1536" y2="640" stroke="#449FDB" opacity="1"></line>
    <line stroke-width="1" x1="0" y1="656" x2="1536" y2="656" stroke="#449FDB" opacity="0.3"></line>
    <line stroke-width="1" x1="0" y1="672" x2="1536" y2="672" stroke="#449FDB" opacity="1"></line>
    <line stroke-width="1" x1="0" y1="688" x2="1536" y2="688" stroke="#449FDB" opacity="0.3"></line>
    <line stroke-width="1" x1="0" y1="704" x2="1536" y2="704" stroke="#449FDB" opacity="1"></line>
    <line stroke-width="1" x1="0" y1="720" x2="1536" y2="720" stroke="#449FDB" opacity="0.3"></line>
    <line stroke-width="1" x1="0" y1="736" x2="1536" y2="736" stroke="#449FDB" opacity="1"></line>
    <line stroke-width="1" x1="0" y1="752" x2="1536" y2="752" stroke="#449FDB" opacity="0.3"></line>
    <line stroke-width="1" x1="0" y1="768" x2="1536" y2="768" stroke="#449FDB" opacity="1"></line>
    <line stroke-width="1" x1="0" y1="784" x2="1536" y2="784" stroke="#449FDB" opacity="0.3"></line>
    <line stroke-width="1" x1="0" y1="800" x2="1536" y2="800" stroke="#449FDB" opacity="1"></line>
    <line stroke-width="1" x1="0" y1="816" x2="1536" y2="816" stroke="#449FDB" opacity="0.3"></line>
    <line stroke-width="1" x1="0" y1="832" x2="1536" y2="832" stroke="#449FDB" opacity="1"></line>
    <line stroke-width="1" x1="0" y1="848" x2="1536" y2="848" stroke="#449FDB" opacity="0.3"></line>
    <line stroke-width="1" x1="0" y1="864" x2="1536" y2="864" stroke="#449FDB" opacity="1"></line>
    <line stroke-width="1" x1="0" y1="880" x2="1536" y2="880" stroke="#449FDB" opacity="0.3"></line>
    <line stroke-width="1" x1="0" y1="896" x2="1536" y2="896" stroke="#449FDB" opacity="1"></line>
    <line stroke-width="1" x1="0" y1="912" x2="1536" y2="912" stroke="#449FDB" opacity="0.3"></line>
    <line stroke-width="1" x1="0" y1="928" x2="1536" y2="928" stroke="#449FDB" opacity="1"></line>
    <line stroke-width="1" x1="0" y1="944" x2="1536" y2="944" stroke="#449FDB" opacity="0.3"></line>
    <line stroke-width="1" x1="0" y1="960" x2="1536" y2="960" stroke="#449FDB" opacity="1"></line>
    <line stroke-width="1" x1="0" y1="976" x2="1536" y2="976" stroke="#449FDB" opacity="0.3"></line>
    <line stroke-width="1" x1="0" y1="992" x2="1536" y2="992" stroke="#449FDB" opacity="1"></line>
    <line stroke-width="1" x1="0" y1="1008" x2="1536" y2="1008" stroke="#449FDB" opacity="0.3"></line>
    <line stroke-width="1" x1="0" y1="1024" x2="1536" y2="1024" stroke="#449FDB" opacity="1"></line>
    <line stroke-width="1" x1="0" y1="1040" x2="1536" y2="1040" stroke="#449FDB" opacity="0.3"></line>
    <line stroke-width="1" x1="0" y1="1056" x2="1536" y2="1056" stroke="#449FDB" opacity="1"></line>
    <line stroke-width="1" x1="0" y1="1072" x2="1536" y2="1072" stroke="#449FDB" opacity="0.3"></line>
    <line stroke-width="1" x1="0" y1="1088" x2="1536" y2="1088" stroke="#449FDB" opacity="1"></line>
    <line stroke-width="1" x1="0" y1="1104" x2="1536" y2="1104" stroke="#449FDB" opacity="0.3"></line>
    <line stroke-width="1" x1="0" y1="1120" x2="1536" y2="1120" stroke="#449FDB" opacity="1"></line>
    <line stroke-width="1" x1="0" y1="1136" x2="1536" y2="1136" stroke="#449FDB" opacity="0.3"></line>
    <line stroke-width="1" x1="0" y1="1152" x2="1536" y2="1152" stroke="#449FDB" opacity="1"></line>
    <line stroke-width="1" x1="0" y1="1168" x2="1536" y2="1168" stroke="#449FDB" opacity="0.3"></line>
    <line stroke-width="1" x1="0" y1="1184" x2="1536" y2="1184" stroke="#449FDB" opacity="1"></line>
    <line stroke-width="1" x1="0" y1="1200" x2="1536" y2="1200" stroke="#449FDB" opacity="0.3"></line>
    <line stroke-width="1" x1="0" y1="1216" x2="1536" y2="1216" stroke="#449FDB" opacity="1"></line>
    <line stroke-width="1" x1="0" y1="1232" x2="1536" y2="1232" stroke="#449FDB" opacity="0.3"></line>
    <line stroke-width="1" x1="0" y1="1248" x2="1536" y2="1248" stroke="#449FDB" opacity="1"></line>
    <line stroke-width="1" x1="0" y1="1264" x2="1536" y2="1264" stroke="#449FDB" opacity="0.3"></line>
    <line stroke-width="1" x1="0" y1="1280" x2="1536" y2="1280" stroke="#449FDB" opacity="1"></line>
    <line stroke-width="1" x1="0" y1="1296" x2="1536" y2="1296" stroke="#449FDB" opacity="0.3"></line>
    <line stroke-width="1" x1="0" y1="1312" x2="1536" y2="1312" stroke="#449FDB" opacity="1"></line>
    <line stroke-width="1" x1="0" y1="1328" x2="1536" y2="1328" stroke="#449FDB" opacity="0.3"></line>
    <line stroke-width="1" x1="0" y1="1344" x2="1536" y2="1344" stroke="#449FDB" opacity="1"></line>
    <line stroke-width="1" x1="0" y1="1360" x2="1536" y2="1360" stroke="#449FDB" opacity="0.3"></line>
    <line stroke-width="1" x1="0" y1="1376" x2="1536" y2="1376" stroke="#449FDB" opacity="1"></line>
    <line stroke-width="1" x1="0" y1="1392" x2="1536" y2="1392" stroke="#449FDB" opacity="0.3"></line>
    <line stroke-width="1" x1="0" y1="1408" x2="1536" y2="1408" stroke="#449FDB" opacity="1"></line>
    <line stroke-width="1" x1="0" y1="1424" x2="1536" y2="1424" stroke="#449FDB" opacity="0.3"></line>
    <line stroke-width="1" x1="0" y1="1440" x2="1536" y2="1440" stroke="#449FDB" opacity="1"></line>
    <line stroke-width="1" x1="0" y1="1456" x2="1536" y2="1456" stroke="#449FDB" opacity="0.3"></line>
    <line stroke-width="1" x1="0" y1="1472" x2="1536" y2="1472" stroke="#449FDB" opacity="1"></line>
    <line stroke-width="1" x1="0" y1="1488" x2="1536" y2="1488" stroke="#449FDB" opacity="0.3"></line>
    <line stroke-width="1" x1="0" y1="1504" x2="1536" y2="1504" stroke="#449FDB" opacity="1"></line>
    <line stroke-width="1" x1="0" y1="1520" x2="1536" y2="1520" stroke="#449FDB" opacity="0.3"></line>
</g>
<path fill="#1da1f2" d="M1533.055 292.416c-56.64 24.896-117.12 41.856-180.799 49.601 64.896-39.103 114.816-100.736 138.432-174.272-60.864 35.52-128.321 61.376-200.129 75.776-57.344-61.376-139.072-99.776-229.824-99.776-173.887 0-314.88 140.993-314.88 314.688 0 24.96 2.88 48.96 8.129 71.936-261.761-12.353-493.76-138.048-649.024-328.064-27.329 46.208-42.624 99.905-42.624 158.4 0 109.44 55.68 205.632 140.033 262.145-51.648-1.663-100.224-15.872-142.591-39.425v3.905c0 152.64 108.353 279.936 252.545 308.928-26.432 7.104-54.336 10.944-82.944 10.944-20.095 0-39.36-1.92-58.624-5.504 40.385 124.992 156.48 216.128 294.655 218.688-107.52 84.416-243.775 134.719-390.528 134.719-24.96 0-49.856-1.472-74.88-4.289 140.095 89.216 305.152 141.377 483.648 141.377 579.456 0 895.937-479.744 895.937-895.104 0-13.375 0-26.88-0.96-40.32 61.505-44.095 115.2-99.84 157.44-163.072l-3.007-1.28z"></path>
</svg>
